<svg width="184" height="32" viewBox="0 0 184 32" fill="none" xmlns="http://www.w3.org/2000/svg">
<path d="M183.9 14.6C183.9 15.7 183.9 16.8 183.6 17.6C182.8 17.3 182 17.3 180.9 17.3C180.1 17.3 179.3 17.6 178.5 17.6C178.5 31.1 178.5 31.1 178.5 31.1C175 31.1 175 31.1 175 31.1C175 15.4 175 15.4 175 15.4C176.4 14.9 179.1 14.3 181 14.3C182 14.3 183.1 14.3 183.9 14.6ZM160.4 21.4C168.5 21.4 168.5 21.4 168.5 21.4C168.5 19 166.9 17.3 164.4 17.3C162 17.3 160.7 18.7 160.4 21.4ZM171.8 24.3C160.7 24.3 160.7 24.3 160.7 24.3C161 27.3 162.6 28.6 165.8 28.6C167.7 28.6 169.6 28.1 171.5 27.2C171.2 28.3 171 29.4 171 30.4C169.4 31.2 167.5 31.5 165.9 31.5C159.9 31.5 157 28.3 157 22.8C157 17.9 159.4 14.1 164.8 14.1C169.9 14.1 172.1 17.3 172.1 21.4C172 22.7 171.8 23.5 171.8 24.3ZM150.7 27.6C150.7 17.6 150.7 17.6 150.7 17.6C149.9 17.6 148.8 17.3 148 17.3C144.5 17.3 142.9 19.5 142.9 23.2C142.9 26.4 144.3 28.6 147.2 28.6C148.5 28.7 149.6 28.1 150.7 27.6ZM154.2 8.90001C154.2 31.1 154.2 31.1 154.2 31.1C151 31.1 151 31.1 151 31.1C150.7 29.2 150.7 29.2 150.7 29.2C149.9 30.6 148.5 31.6 146.1 31.6C142 31.6 139.3 28.4 139.3 23.2C139.3 17.5 142.3 14.3 148 14.3C149.1 14.3 149.9 14.6 150.7 14.6C150.7 9.50001 150.7 9.5 150.7 9.5C151.7 8.9 153.1 8.90001 154.2 8.90001ZM136.3 20.6C136.3 31.1 136.3 31.1 136.3 31.1C132.8 31.1 132.8 31.1 132.8 31.1C132.8 21.1 132.8 21.1 132.8 21.1C132.8 18.7 132 17.3 128.5 17.3C127.7 17.3 126.9 17.6 125.8 17.6C125.8 31.1 125.8 31.1 125.8 31.1C122.3 31.1 122.3 31.1 122.3 31.1C122.3 15.4 122.3 15.4 122.3 15.4C124.5 14.9 126.9 14.3 128.8 14.3C134.4 14.3 136.3 16.8 136.3 20.6ZM115 27.6C115 17.6 115 17.6 115 17.6C114.2 17.6 113.4 17.3 112.6 17.3C108.8 17.3 107.2 19.7 107.2 23.2C107.2 26.4 108.6 28.6 111.5 28.6C112.8 28.7 114.2 28.4 115 27.6ZM118.5 15.4C118.5 31.1 118.5 31.1 118.5 31.1C115.3 31.1 115.3 31.1 115.3 31.1C115 29.2 115 29.2 115 29.2C114.2 30.6 112.8 31.6 110.7 31.6C106.4 31.6 103.7 28.4 103.7 23.2C103.7 17.5 106.7 14.3 112.6 14.3C114.7 14.3 116.6 14.6 118.5 15.4ZM99.5 28.7C100.6 28.7 101.7 28.4 102.5 28.2C102.2 29 102.2 30.1 102 31.2C101.2 31.5 100.1 31.7 99 31.7C95.8 31.7 93.6 30.1 93.6 26.3C93.6 9.5 93.6 9.5 93.6 9.5C94.7 9.2 95.8 9 96.8 9C96.8 14.9 96.8 14.9 96.8 14.9C102.5 14.9 102.5 14.9 102.5 14.9C102.5 16 102.2 17.1 102.2 17.9C96.8 17.9 96.8 17.9 96.8 17.9C96.8 25.7 96.8 25.7 96.8 25.7C96.8 27.9 97.9 28.7 99.5 28.7ZM90.1 20.6C90.1 31.1 90.1 31.1 90.1 31.1C86.6 31.1 86.6 31.1 86.6 31.1C86.6 21.1 86.6 21.1 86.6 21.1C86.6 18.7 85.8 17.3 82.3 17.3C81.5 17.3 80.4 17.6 79.3 17.6C79.3 31.1 79.3 31.1 79.3 31.1C75.8 31.1 75.8 31.1 75.8 31.1C75.8 15.4 75.8 15.4 75.8 15.4C78.2 14.9 80.7 14.3 82.3 14.3C88.2 14.3 90.1 16.8 90.1 20.6ZM68.4 27.6C68.4 17.6 68.4 17.6 68.4 17.6C67.9 17.6 67 17.3 66 17.3C62.5 17.3 60.6 19.7 60.6 23.2C60.6 26.4 62 28.6 65.2 28.6C66.6 28.7 67.6 28.4 68.4 27.6ZM72 15.4C72 31.1 72 31.1 72 31.1C68.8 31.1 68.8 31.1 68.8 31.1C68.8 29.2 68.8 29.2 68.8 29.2C67.7 30.6 66.4 31.6 64.2 31.6C60.1 31.6 57.2 28.4 57.2 23.2C57.2 17.5 60.2 14.3 66.1 14.3C68.4 14.3 70.3 14.6 72 15.4ZM40.3 30.6C40.3 29.2 40.6 28.4 40.8 27.4C42.7 28.2 44.9 28.5 46.7 28.5C49.7 28.5 51.3 27.7 51.3 25.8C51.3 23.9 49.9 23.1 47 21.7C45.4 21.2 45.4 21.2 45.4 21.2C42.4 19.8 40.5 18.2 40.5 14.7C40.5 11.2 42.9 8.8 48.1 8.8C50.3 8.8 52.2 9.10001 53.8 9.60001C53.8 11 53.5 12 53.3 12.8C51.7 12.3 49.5 12 48.2 12C45.5 12 44.1 13.1 44.1 14.7C44.1 16.3 45.2 17.4 47.6 18.2C49.2 19 49.2 19 49.2 19C53.3 20.6 54.9 22.5 54.9 25.5C54.9 29.3 52.2 31.7 46.8 31.7C44.1 31.6 41.9 31.4 40.3 30.6ZM24.4 14.9C24.1 13.5 23.9 12.5 23.3 11.4C17.9 2.20001 17.9 2.20001 17.9 2.20001C17.6 1.70001 17.4 0.8 17.1 0C17.1 0.5 17.1 0.5 17.1 0.5C15.7 2.7 15.7 5.4 17.1 7.8C21.2 15.1 21.2 15.1 21.2 15.1C22.6 17.3 22.6 20.2 21.2 22.4C20.9 22.9 20.9 22.9 20.9 22.9C20.9 22.1 20.6 21.3 20.1 20.5C16.3 13.7 16.3 13.7 16.3 13.7C13.9 9.60001 13.9 9.60001 13.9 9.60001C13.4 8.80001 13.1 8.00001 13.1 7.20001C12.8 7.70001 12.8 7.70001 12.8 7.70001C11.4 9.90001 11.4 12.6 12.8 15C17.1 22.3 17.1 22.3 17.1 22.3C18.2 24.7 18.2 27.4 17.1 29.6C16.8 30.1 16.8 30.1 16.8 30.1C16.5 29.3 16.3 28.5 16 27.9C10.6 18.7 10.6 18.7 10.6 18.7C9.80001 17.3 9.5 16 9.5 14.6C3.8 16 0 19.2 0 22.7C0 27.8 7.6 31.9 17 31.9C26.2 31.9 33.8 27.8 33.8 22.7C33.8 19.5 30 16.2 24.4 14.9Z" fill="#E31918"/>
</svg>
